<svg viewBox="0 0 72 72" xmlns="http://www.w3.org/2000/svg"><path d="m22.3528 51.6738c-.7516 1.1632-2.1343 1.603-3.0902.9854-.9559-.6177-1.1216-2.0613-.37-3.2245 0 0 .8943-1.4257 4.0066-3.0386 0 0 .6168-.3534.5724.3205-.1914 3.5001-1.1188 4.9572-1.1188 4.9572" fill="#92d3f5"/><path d="m22.8121 46.5382c.5441 1.6504-.7227 4.9495-.7227 4.9495-.9587 1.3692-2.1337 1.5027-3.1418.7967-.0001.0001 2.7195-.9711 3.8645-5.7462" fill="#61b2e4"/><path d="m52.4574 51.6738c-.7516 1.1632-2.1343 1.603-3.0902.9854-.9559-.6177-1.1216-2.0613-.37-3.2245 0 0 .8943-1.4257 4.0066-3.0386 0 0 .6168-.3534.5724.3205-.1914 3.5001-1.1188 4.9572-1.1188 4.9572" fill="#92d3f5"/><path d="m52.9167 46.5382c.5441 1.6504-.7227 4.9495-.7227 4.9495-.9587 1.3692-2.1337 1.5027-3.1418.7967-.0001.0001 2.7195-.9711 3.8645-5.7462" fill="#61b2e4"/><path d="m37.4051 51.6738c-.7516 1.1632-2.1343 1.603-3.0902.9854-.9559-.6177-1.1216-2.0613-.37-3.2245 0 0 .8943-1.4257 4.0066-3.0386 0 0 .6168-.3534.5724.3205-.1914 3.5001-1.1188 4.9572-1.1188 4.9572" fill="#92d3f5"/><path d="m37.8644 46.5382c.5441 1.6504-.7227 4.9495-.7227 4.9495-.9587 1.3692-2.1337 1.5027-3.1418.7967-.0001.0001 2.7195-.9711 3.8645-5.7462" fill="#61b2e4"/><path d="m29.3789 59.2449c-.7516 1.1632-2.1343 1.603-3.0902.9854-.9559-.6177-1.1216-2.0613-.37-3.2245 0 0 .8943-1.4257 4.0066-3.0386 0 0 .6168-.3534.5724.3205-.1914 3.5002-1.1188 4.9572-1.1188 4.9572" fill="#92d3f5"/><path d="m29.8382 54.1094c.5441 1.6504-.7227 4.9495-.7227 4.9495-.9587 1.3692-2.1337 1.5027-3.1418.7967 0 0 2.7195-.9711 3.8645-5.7462" fill="#61b2e4"/><path d="m44.4312 59.2449c-.7516 1.1632-2.1343 1.603-3.0902.9854s-1.1216-2.0613-.37-3.2245c0 0 .8943-1.4257 4.0066-3.0386 0 0 .6168-.3534.5724.3205-.1914 3.5002-1.1188 4.9572-1.1188 4.9572" fill="#92d3f5"/><path d="m44.8906 54.1094c.5441 1.6504-.7227 4.9495-.7227 4.9495-.9587 1.3692-2.1337 1.5027-3.1418.7967-.0001 0 2.7194-.9711 3.8645-5.7462" fill="#61b2e4"/><path d="m19.2787 22.3171c-.031.3535-.3174.6396-.6721.6775-4.2996.4606-7.6066 4.6943-7.6066 9.8475 0 5.4608 3.7871 9.8877 8.4588 9.8877h32.248c5.1325 0 9.2932-4.6783 9.2932-10.4492 0-5.5305-3.8212-10.0575-8.6569-10.4251-.37-.0281-.67-.2871-.7406-.6494-1.0803-5.5472-6.0636-9.7159-11.9553-9.7159-3.829 0-7.2399 1.7335-9.4549 4.4912-.2164.2695-.5797.3929-.8992.2589-.8523-.3575-1.7525-.5304-2.7597-.5304-3.8062 0-6.9303 2.9047-7.2547 6.6072z" fill="#d0cfce"/><g fill="none" stroke="#000" stroke-linecap="round" stroke-linejoin="round" stroke-miterlimit="10"><path d="m22.3528 51.6738c-.7516 1.1632-2.1343 1.603-3.0902.9854-.9559-.6177-1.1216-2.0613-.37-3.2245 0 0 .8761-1.5078 4.0066-3.0386 0 0 .6168-.3534.5724.3205-.1914 3.5001-1.1188 4.9572-1.1188 4.9572" stroke-width="1.8"/><path d="m52.4574 51.6738c-.7516 1.1632-2.1343 1.603-3.0902.9854-.9559-.6177-1.1216-2.0613-.37-3.2245 0 0 .8761-1.5078 4.0066-3.0386 0 0 .6168-.3534.5724.3205-.1914 3.5001-1.1188 4.9572-1.1188 4.9572" stroke-width="1.8"/><path d="m37.4051 51.6738c-.7516 1.1632-2.1343 1.603-3.0902.9854-.9559-.6177-1.1216-2.0613-.37-3.2245 0 0 .8761-1.5078 4.0066-3.0386 0 0 .6168-.3534.5724.3205-.1914 3.5001-1.1188 4.9572-1.1188 4.9572" stroke-width="1.8"/><path d="m29.3789 59.2449c-.7516 1.1632-2.1343 1.603-3.0902.9854-.9559-.6177-1.1216-2.0613-.37-3.2245 0 0 .8761-1.5078 4.0066-3.0386 0 0 .6168-.3534.5724.3205-.1914 3.5002-1.1188 4.9572-1.1188 4.9572" stroke-width="1.8"/><path d="m44.4312 59.2449c-.7516 1.1632-2.1343 1.603-3.0902.9854s-1.1216-2.0613-.37-3.2245c0 0 .8761-1.5078 4.0066-3.0386 0 0 .6168-.3534.5724.3205-.1914 3.5002-1.1188 4.9572-1.1188 4.9572" stroke-width="1.8"/><path d="m19.2787 22.3171c-.031.3535-.3174.6396-.6721.6775-4.2996.4606-7.6066 4.6943-7.6066 9.8475 0 5.4608 3.7871 9.8877 8.4588 9.8877h32.248c5.1325 0 9.2932-4.6783 9.2932-10.4492 0-5.5305-3.8212-10.0575-8.6569-10.4251-.37-.0281-.67-.2871-.7406-.6494-1.0803-5.5472-6.0636-9.7159-11.9553-9.7159-3.829 0-7.2399 1.7335-9.4549 4.4912-.2164.2695-.5797.3929-.8992.2589-.8523-.3575-1.7525-.5304-2.7597-.5304-3.8062 0-6.9303 2.9047-7.2547 6.6072z" stroke-width="2"/></g></svg>